<?xml version="1.0" encoding="iso-8859-1"?>
<!-- Generator: Adobe Illustrator 19.0.0, SVG Export Plug-In . SVG Version: 6.00 Build 0)  -->
<svg version="1.1" id="Capa_1" xmlns="http://www.w3.org/2000/svg" xmlns:xlink="http://www.w3.org/1999/xlink" x="0px" y="0px"
	 viewBox="0 0 512 512" style="enable-background:new 0 0 512 512;" xml:space="preserve">
<g>
	<g>
		<g>
			<path style="fill:white" d="M96.096,279.039C67.378,295.618,57.553,332.277,74.135,361c16.543,28.654,53.182,38.579,81.961,21.961
				c28.718-16.579,38.544-53.238,21.962-81.961C161.478,272.282,124.818,262.457,96.096,279.039z M141.096,356.98
				c-14.36,8.291-32.689,3.381-40.981-10.98c-8.29-14.359-3.38-32.689,10.98-40.98c14.393-8.309,32.704-3.354,40.981,10.98
				C160.367,330.358,155.457,348.689,141.096,356.98z"/>
			<path style="fill:white" d="M256,0C114.516,0,0,114.497,0,256c0,141.483,114.497,256,256,256c141.484,0,256-114.497,256-256
				C512,114.517,397.503,0,256,0z M256,482C131.098,482,30,380.922,30,256C30,131.098,131.078,30,256,30
				c124.902,0,226,101.078,226,226C482,380.902,380.922,482,256,482z"/>
			<path style="fill:white" d="M96.096,232.961c28.781,16.617,65.409,6.71,81.961-21.961c16.58-28.718,6.762-65.379-21.961-81.961
				c-28.721-16.58-65.379-6.762-81.961,21.961C57.556,179.718,67.374,216.379,96.096,232.961z M100.116,166
				c8.273-14.328,26.592-19.288,40.981-10.98c14.358,8.29,19.271,26.619,10.98,40.98c-8.289,14.356-26.618,19.274-40.981,10.98
				C96.738,198.689,91.825,180.36,100.116,166z"/>
			<path style="fill:white" d="M256,346c-33.084,0-60,26.916-60,60s26.916,60,60,60s60-26.916,60-60S289.084,346,256,346z M256,436
				c-16.542,0-30-13.458-30-30s13.458-30,30-30s30,13.458,30,30S272.542,436,256,436z"/>
			<path style="fill:white" d="M415.904,279.039c-28.718-16.58-65.379-6.762-81.961,21.961c-16.579,28.718-6.761,65.379,21.961,81.961
				c28.768,16.61,65.412,6.704,81.961-21.961C454.445,332.282,444.626,295.621,415.904,279.039z M411.885,346
				c-8.291,14.359-26.618,19.272-40.981,10.98c-14.358-8.291-19.271-26.62-10.98-40.98c8.273-14.328,26.592-19.288,40.981-10.98
				C415.263,313.31,420.176,331.639,411.885,346z"/>
			<path style="fill:white" d="M256,46c-33.084,0-60,26.916-60,60s26.916,60,60,60s60-26.916,60-60S289.084,46,256,46z M256,136
				c-16.542,0-30-13.458-30-30s13.458-30,30-30s30,13.458,30,30S272.542,136,256,136z"/>
			<path style="fill:white" d="M256,215c-8.284,0-15,6.716-15,15v11h-11c-8.284,0-15,6.716-15,15s6.716,15,15,15h11v11c0,8.284,6.716,15,15,15
				s15-6.716,15-15v-11h11c8.284,0,15-6.716,15-15s-6.716-15-15-15h-11v-11C271,221.716,264.284,215,256,215z"/>
			<path style="fill:white" d="M415.903,232.961c28.718-16.579,38.544-53.238,21.962-81.961c-16.579-28.716-53.24-38.544-81.961-21.961
				c-28.718,16.579-38.544,53.238-21.962,81.961C350.516,239.708,387.176,249.549,415.903,232.961z M370.903,155.02
				c14.387-8.306,32.706-3.351,40.981,10.98c8.289,14.358,3.38,32.689-10.981,40.98c-14.36,8.291-32.689,3.38-40.981-10.98
				C351.633,181.641,356.543,163.311,370.903,155.02z"/>
		</g>
	</g>
</g>
<g>
</g>
<g>
</g>
<g>
</g>
<g>
</g>
<g>
</g>
<g>
</g>
<g>
</g>
<g>
</g>
<g>
</g>
<g>
</g>
<g>
</g>
<g>
</g>
<g>
</g>
<g>
</g>
<g>
</g>
</svg>
